<?xml version="1.0" encoding="UTF-8"?>
<svg id="Capa_1" xmlns="http://www.w3.org/2000/svg" version="1.1" viewBox="0 0 3277 4096">
  <!-- Generator: Adobe Illustrator 30.3.0, SVG Export Plug-In . SVG Version: 2.1.3 Build 182)  -->
  <defs>
    <style>
      .st0 {
        fill: #020202;
      }

      .st1 {
        fill: #f97316;
      }

      .st2, .st3 {
        fill: none;
      }

      .st3 {
        stroke: #f97316;
        stroke-linecap: round;
        stroke-linejoin: round;
        stroke-width: 25px;
      }

      .st4 {
        fill: #f97316;
      }
    </style>
  </defs>
  <path class="st4" d="M2742.45,2144.8l19.62-122.02,22.37-161.08,19.02-181.63,34.24-319.51,15.97-169.72,5.62-74.93,5.93-81.43-55.37-25.07-94.65-39.13-130.33-51.54-59.01-23.21-77.9-32.08-87.19-34.95-84.44-33.69-206.91-84.82-190.35-77.14-89.36-36.87-139.75-56.2c-10.85-4.36-19.41-3.54-29.91.82l-110.23,45.8-96.83,40.92-94.84,39.19-127.65,52.35-96.12,38.16-213.6,87.96-50.68,19.81-126.42,51.04-85.62,34.58-149.68,62.08c-17.3,7.17-34.49,11.72-50.23,21.92l4.84,74.74,7.43,86.83,7.84,90.12,10.94,104.96,5.54,54.86,6.03,60.22,22.21,203.14,6.3,57.61,14.38,113.5,11.64,82.55,26.53,181.63-151.95,52.98,29.4,101.21,34.26,125.68,46.65,163.46,46.25,164.02,44.94,163.48,78.92,46.18,110.87,64.94,105.23,60.72,65.93,38.22,60.51,35.54,80.55,47.18,56.55,33.4,85.73,48.7,113.25,66.57,176.33,103.24,34.99,19.32,82.9,45.86,74.18-41.81,176.04-101.33,79.79-46.35,61.17-36.76,69.16-39.19,159.16-92.53,141.45-82.54,137.01-79.04,86.96-50.84,70.17-39.76,29.7-112.15,58.47-207.06,35.46-128.85,28.78-103.38,27.72-96.15,19.02-70.72-83.99-28.98-70.91-23.01ZM2807.74,2334.3l-26.74,101.36-19.13,69.07-23.93,83.81-28.23,101.88-27.2,99.14-26.55,92.97c-4.31,6.33-12.98,9.21-19.26,12.93l-115.67,68.46-144.32,85.26-57.62,34.7-120.23,69.4-38.94,21.35-89.84,52.06-78.12,44.42-225.87,131.35-98.13,55.87-27.68,14.94-26.86-15.4-128.73-74.79-84.51-49.51-24.77-13.33-84.51-49.54-97.55-56.21-60.71-35.42-76.16-43.91-95.16-54.64-40.28-23.84-53.35-30.67-88.86-52.93-54.35-33.99-88.88-49.82-50.99-176.41-69.63-251.87-32.38-113.8-33.59-119.29,103.92-38.75,41.74-14.94-31.06-184.15-43.28-303.04-21.18-154.66-8.56-73.63-15.94-169.12-6.66-73.6-3.11-49.83c-2.13-34.21-7.44-67.45-7.11-101.55,36.28-18.87,71.99-34.08,109.16-49.8l131.99-55.85,114.27-47.49,126.64-53.06,125.1-50.94,104.59-43.59,179.7-74.04,85.88-34.47,190.69-77.12c7.61-3.08,14.52-3.52,21.99-.5l106.53,43.09,60.99,23.29,107.18,42.75,46.64,19.58,223.9,91.39,76.64,31.73,71.34,28.75,75.48,32.33,106.45,43.52,215,90.61,50.45,21.98,36.08,15.16-6.87,93.96-7.31,94.73-21.66,227.45-45.24,361.81-27.44,190.37-26.56,143.2,145.67,53.75-27.31,107.06Z"/>
  <path class="st4" d="M2306.91,2688.38l-999.16-.18-491.44-.81-185.12.55,36.08,138.57,11.51,32.05,88.67,43.8,82.84,39.1,34,16.09,58.1,30.36,201.61.09,1192.67-.02c14.08,0,22.32-2.79,33.75-8.87l59.24-31.52,39.87-19.24,60.5-31.42,78.31-39.75c5.07-2.57,8.58-6.29,10.13-12.05l31.01-114.64,11.63-43.71-138.76.49-215.45,1.12ZM885.69,2863.84c-.01,5.42-3.92,9.89-9.35,11.76l-34.61.37c-7.55.08-11.87-8.67-11.87-15.95l.11-85.97c.01-8.63,5.13-15.75,13.92-15.69l29.39.18c7.69.05,12.65,5.64,12.63,13.5l-.22,91.8ZM961.52,2816.07c0,7.83-5.77,14.43-14.57,14.58l-24.35.42-.67,43.23c-3.23,3.71-11.63,4.02-16.7,1.61l-.25-117.91,42.31.77c7.98.14,13.88,5.19,14.25,13.37l-.04,43.94ZM1027.46,2876.2l-50.93.56-.16-118.48,50.7.14-.3,13.15-32.89.31-.1,36.36,27.71.43-.09,12.96-27.42.46-.33,40.47,34.04.28c1.08,4.01,1.24,8.19-.23,13.37ZM1085.63,2875.9l-17.08-45.29c-.94-2.49-8.14-2.86-9.26-.71l-.58,45.04c-5.48,2.29-11.01,2.42-17.03.84l-.07-117.68,43.64.54c6.93.09,11.67,4.58,12.56,11.49l-.46,47.54c-.06,6.12-5.42,9.48-11.94,10.43l18.14,47.4c-5.76,2.11-11.52,1.68-17.92.39ZM1159.52,2876.18l-3.96-26.12c-8.71-1.55-17.02-1.52-25.7-.42l-4.29,25.88c-5.61,1.4-10.36,1.93-16.73.23l20.37-116.85,25.26-.83,21.98,117.43c-6.48,2.03-11.51,2-16.94.69ZM1251.83,2876.09l-.75-80.6-15.25,55.02c-4.62,1.4-9.92,1.16-15.47.16l-16.15-55.24-.59,80.29c-5.02,1.25-9,1.24-14.95.53l-.06-117.06c6.39-1.61,12.18-1.61,18.97-.7l20.49,72.57,19.86-72.57c6.83-1.09,12.7-.95,18.97.07l.09,117.05c-4.41,1.21-8.56,1.71-15.17.46ZM1342.06,2858.02c-.01,8.16-2.98,14.77-10.75,17.91l-33.68-.05c-7.67-.01-12-8.45-11.99-15.86l.08-85.99c0-8.64,5.34-15.51,14.07-15.56l27.59-.15c10.15-.05,14.85,8.04,14.83,17.66l-.14,82.03ZM1398.06,2809.3c8.07.35,14.38,5.57,14.39,13.93v38.03c.02,16.72-20.9,17.54-42.43,14.34-6.17-.92-10.71-5.58-10.84-11.45l-.48-21.23c5.6-1.23,10.7-1.09,17.13-.44l.91,18.48c4.3,3.09,13.71,3.48,17.43-.19l.22-36.91-20.08-.79c-8.14-.32-15.66-5.22-15.62-13.91l.15-37.89c.03-6.76,4.92-12.28,11.44-12.38l27.24-.42c14.13-.22,16.62,15.26,14.23,33.33-5.85,1.43-10.57,1.43-16.42.1l-1.04-18.43c-5.99-2.49-12.89-2.48-18.38.62l-.13,34.25,22.27.97ZM1493.64,2876.18c-18.86.51-38.9,3.15-38.98-12.79l-.11-20.51c5.69-1.26,10.9-1.1,16.86-.55l.64,19.05c4.2,2.54,15.76,3.22,17.4-.9l.57-36.45-20.99-1.19c-7.98-.45-14.74-5.03-14.78-13.38l-.18-37.31c-.03-6.96,4.92-13.35,11.9-13.37l29.13-.07c8.02-.02,12.55,7.29,12.48,15.13l-.16,18.15c-6.22,1.22-11.5,1.29-17.5-.16.16-5.88,1.48-12.3-1.1-17.54-1.95-3.96-15.08-4.04-16.4.12-3.42,10.78-.19,22.4-.99,33.75l22.63,1.05c7.31.34,13.45,5.09,13.47,12.86l.12,39.94c.02,8.19-6.02,13.93-14.02,14.15ZM1525.7,2875.73l.46-116.57c6.13-1.44,11.2-1.51,17.4-.74l.05,116.79c-6.04,2.21-11.83,2.07-17.91.52ZM1604.75,2876.48l-24.38-81.04-.49,80.21c-5.43,1.4-9.38,1.53-15.56.72l-.08-117.18c6.57-1.35,12.29-1.51,18.39-.43l22.32,76.04,1.71-75.64c5.19-1.47,10.51-1.67,15.78-.13l.1,116.3c-5.17,3.03-11.58,2.47-17.79,1.16ZM1725.84,2816c-.02,8.44-5.44,14.7-14.61,14.93l-24.31.6-.15,44.3c-5.57,1.15-11.04,1.59-17.29.06l.05-117.55,43.57.48c8.08.09,13.16,7.17,12.86,15.1l-.1,42.09ZM1784.71,2876.44l-16.62-45.15c-1.21-3.28-9.25-3.52-9.31-.89l-1.05,45.18c-5.82,1.44-10.79,1.98-17.04.52l.04-117.36,40.76-.25c8.52-.05,15.61,4.69,15.63,13.75l.09,41.75c.02,7.58-3.79,12.78-12.4,14.43l18.18,46.63c-7.09,3.03-11.73,1.72-18.28,1.4ZM1867.16,2876.22l-51.03.46-.29-118.36,49.69-.16c1.61,4.29,1.18,8.83-.33,13.5l-31.8.39-.06,36.14,26.24.31c1.63,3.63,1.5,7.97.52,12.91l-26.76.65v40.42s33.95.28,33.95.28c.53,4.17.7,8.29-.14,13.45ZM1936.15,2818.81c-.03,4.99-3.95,10.93-9.81,11.16l-28.3,1.1-.59,44.69-17.15.69-.08-118.16,43.06.42c7.16.07,13.18,4.89,13.14,12.16l-.27,47.94ZM1995.31,2874.8c-3.09-7.37-2.67-14.57-4.01-24.72-8.73-1.69-16.95-.93-25.59-.39l-4.33,26.35c-5.21,1.68-10.42,1.66-17.08-.26l20.64-116.66,25.2-.84,22.02,116.43c-3.84,2.87-13.72,3.26-16.85.1ZM2067.93,2875.57l-16.88-45.21c-.99-2.65-8.9-2.37-8.94-.11l-.7,45.19c-5.36,1.77-13.13,2.71-16.71-1.09v-116.19s40.7.23,40.7.23c7.85.05,14.91,4.29,15,12.41l.45,43.04c.08,7.58-3.24,12.97-12.39,14.41l17.64,45.83c-4.48,4.42-12.06,3.31-18.16,1.5ZM2142.69,2876.31l-3.77-26.16c-7.71-2.01-15.58-.89-24.57-.85l-4.99,26.41c-5.69,1.43-10.48,1.84-17.14.14l20.78-117.52,24.98-.15,22.12,117.56c-6.45,1.53-11.04,1.08-17.42.56ZM2215.79,2875.7l-14.93-41.05c-.9-2.48-1.97-3.92-2.89-4.97-1.39-1.59-7.78-1.23-7.81.66l-.67,45.25c-6.01,1.42-10.87,1.88-17.19,1.01l-.06-118.12,46.37.65c6.16.09,9.6,7.25,10.36,12.96l-.02,41.75c0,7.19-4.29,12.59-12.52,14.7l17.62,45.56c-4.52,4.2-11.97,3.15-18.27,1.59ZM2287.68,2875.64l-23.76-80.14-.73,80.35c-5.41,1.32-10.29,1.44-15.9,0l.17-117.22c6.26-1,11.4-.71,18.02-.04l23.27,78.04,1.16-77.91c5.08-1.03,9.88-1.14,15.45-.27l.08,116.76c-5.93,2.65-11.88,2.29-17.76.42ZM2380.18,2860.83c-.02,18.47-20.16,16.63-43.03,15.39-7.42-.4-13.42-6.8-13.4-14.41l.23-89.36c.02-6.96,4.74-12.88,11.76-13.61,23.24-2.4,44.53-3.21,44.52,13.99l-.08,87.99ZM2450.28,2791.65c-5.63,1.4-10.57,1.8-17.27.05-.39-5.38,1.96-13.7-1.68-17.99-3.15-3.72-12.46-2.31-16.86-.32l-.29,35.27,21.11.71c8.44.28,14.95,5,14.99,13.42l.16,38.81c.03,6.77-4.43,13.81-12.24,14.14l-23.08.98c-8.15.35-17.62-4.21-17.69-12.74l-.18-21.53c6.11-.71,11.61-.83,16.95.5l.93,17.37c.23,4.27,15.01,4.74,16.54.57,3.35-11.79.86-24.41,1.36-36.88l-23.89-1.7c-6.7-.48-12.29-5.28-12.22-12.35l.35-39.93c.14-16.34,40.85-14.29,48.06-7.94,7.62,6.71,4.78,19.74,4.95,29.52Z"/>
  <path class="st4" d="M2282.97,2495.12c-39.26,9.29-110.69,15.41-129.41-17.22-5.97-10.41-5.95-22.23-7.34-35.7l-176.35-.12.08,55.95c.02,12.45,3.31,25.72,8.37,37.15,15.34,34.65,44.58,59.22,79.82,72.04,45.13,16.42,90.28,23.09,137.95,25.93l60.37-.03,38.94-1.9c27.47-1.34,52.74-5.79,77.65-15.32l37.74-14.43c25.82-12.28,48.15-30.67,61-56.82,28.79-58.62,29.18-151.11-20.64-196.37-13.32-12.1-27.84-22.21-44.07-29.84-27.18-12.78-54.38-22.82-83.4-30.72l-86.39-23.52c-34.95-9.51-94.02-26.45-85.75-63.9,2.91-13.16,14.94-21.43,27.87-24.41,34.16-7.88,69.27-6.94,103.06,3.01,15.32,4.51,19.99,23.18,21.14,41.39l174.39-.3c4.39-87.18-29.92-134.39-111.94-160.67-28.95-9.27-57.74-11.95-87.93-14.41l-108.23-.25c-32.25,2.8-62.06,6.88-92.89,17.1-39.6,13.12-74.12,38.4-94.03,75.66-13.33,24.94-14.59,52.88-14.97,80.64-.61,45.39,19.47,84.74,54.56,112.97,13,10.46,27.27,17.81,42.95,25.15,73.71,34.47,142.45,39.43,205.78,65.79,12.67,5.27,25.54,11.65,31.58,24.43,9.29,19.66-2.79,44.72-19.88,48.77Z"/>
  <polygon class="st4" points="1573.91 2254.16 1573.41 2622.19 1751.44 2623.51 1751.35 2053.6 1575.04 2053.96 1573.91 2254.16"/>
  <path class="st4" d="M1966.99,1426.5c-4.08-19.62-17.73-33.25-36.6-39.59-31.38-10.53-64.14-13.96-97.42-11.67l-110.92,7.64-26.99,4.92c-7.42,1.35-14.27,4.85-19.03,10.63-19.48,23.7-120.15-3.38-157.75-10.94l-98.38-19.78c-14.93-3-29.16-4.37-44.5-3.87-28.63,6.48-52.04,26.43-61.91,54.6-1.84,44.68,8.32,88.46,30.5,126.9,21.88,37.94,64.65,59.97,108.09,63.96,57.35,5.26,111.98-13.95,138.25-66.6,10.45-20.93,18.99-41.58,25.66-64.37,2.26-7.73,3.74-18.59,9.64-24.28,5.33-5.14,17.34-1.24,23.81-.57,10.32,1.05,16.36,7.32,17.89,16.95,3.53,22.2,8.74,42.69,18.83,63.08,17.57,35.51,48.83,63.72,88.85,73.23,81.53,19.38,155.1-19.37,178.47-98.63,7.93-26.88,10.92-53.68,13.5-81.61ZM1555.41,1553.93c-16,17.77-37.86,26.05-60.96,31.24-57.02,12.79-117.56-10.79-141.47-62.54-11.05-23.92-15.96-49.57-12.47-75.75,30.29.14,87.31,2.39,98.95-12.65,7.91-10.22,11.08-22.09,16.93-34.91,41.96,1.38,82.92,11.63,121.75,27.8,5.6,2.33,8.79,6.86,9.87,12.9,7.29,40.89-4.54,82.74-32.62,113.91ZM1919.12,1537.68c-15.17,24.44-37.66,41.35-67.45,48-34.84,7.77-73.24,6.15-103.99-12.06-52.12-30.87-60.86-110.79-40.52-107.29,17.31,2.98,33.71,5.88,51.08,2.33,23.95-11.32,34.36-45.2,41.67-72.32,42.33-3.19,128.35.34,140.81,38.13,8.8,26.67-5.3,76.93-21.6,103.2Z"/>
  <path class="st4" d="M2142.34,3045.13l-98.9,52.84-20.94,11.19-68.86,39.03-86.26,49.73-80.24,45.9-70.2,37.95-74.35,42.27-109.01-60.04-98.73-57.31-120.46-69.34-54.79-31.58-115.49-59.71c-7.87-4.07-18.06-3.48-23.47,4.12l70.47,46.27,38.86,23.22,67.96,40.04,84.86,49.17,68.14,40.02,154.47,86.94,38.32,19.26,99.78-55.45,230.63-132.59,49.35-27.16,108.47-65.21,30.73-19.35c2.68-1.69,3.27-5.57,2.51-7.98-1.04-3.34-13.32-7.34-22.87-2.23Z"/>
  <path class="st4" d="M2711.99,1239.26l5.79-53.96-25.02-7.87-5.69,64.65-19.63,180.03-23.82,205.76-11.92,96.18-13.81,106.08-13.26,90.78-15.53,108.85-12.73,92.41c9.66,2.52,16.24,3.53,22.87,2.6l21.83-144.92,28.45-201.65,19.95-153.98,22.37-205.7,20.14-179.24Z"/>
  <path class="st4" d="M1846.35,2495.17l-39.39-.32-.41,127.42,114.54,1.14v-112.3c-.06-6.08-.88-11.22-4.07-14.75l-70.67-1.2Z"/>
  <polygon class="st4" points="2634.97 2621.78 2634.25 2506.15 2525.36 2505.11 2525.82 2623.45 2634.97 2621.78"/>
  <path class="st0" d="M1247.93,2758.5l-19.86,72.57-20.49-72.57c-6.79-.91-12.57-.91-18.97.7l.06,117.06c5.95.71,9.93.72,14.95-.53l.59-80.29,16.15,55.24c5.55,1,10.85,1.24,15.47-.16l15.25-55.02.75,80.6c6.6,1.25,10.75.75,15.17-.46l-.09-117.05c-6.26-1.02-12.14-1.16-18.97-.07Z"/>
  <path class="st0" d="M1606.67,2759.14l-1.71,75.64-22.32-76.04c-6.1-1.08-11.82-.92-18.39.43l.08,117.18c6.18.81,10.13.68,15.56-.72l.49-80.21,24.38,81.04c6.21,1.31,12.62,1.87,17.79-1.16l-.1-116.3c-5.27-1.54-10.59-1.34-15.78.13Z"/>
  <path class="st0" d="M2289.91,2758.72l-1.16,77.91-23.27-78.04c-6.61-.67-11.76-.97-18.02.04l-.17,117.22c5.6,1.45,10.48,1.33,15.9,0l.73-80.35,23.76,80.14c5.88,1.87,11.82,2.23,17.76-.42l-.08-116.76c-5.57-.87-10.37-.77-15.45.27Z"/>
  <path class="st0" d="M2228.95,2813.85l.02-41.75c-.76-5.71-4.2-12.88-10.36-12.96l-46.37-.65.06,118.12c6.32.87,11.18.41,17.19-1.01l.67-45.25c.03-1.89,6.42-2.25,7.81-.66.91,1.04,1.99,2.49,2.89,4.97l14.93,41.05c6.29,1.56,13.75,2.61,18.27-1.59l-17.62-45.56c8.23-2.11,12.52-7.51,12.52-14.7ZM2189.82,2814.86l-.35-42.65c7.29-.68,13.92-.85,21.37.79l.69,40.82c-7.2,2.54-13.99,1.78-21.71,1.04Z"/>
  <path class="st0" d="M2335.74,2758.85c-7.02.73-11.75,6.65-11.76,13.61l-.23,89.36c-.02,7.61,5.98,14.01,13.4,14.41,22.87,1.24,43.01,3.08,43.03-15.39l.08-87.99c.02-17.2-21.28-16.39-44.52-13.99ZM2341.3,2861.61v-87.73c6.5-3.2,13.75-2.72,21.53-.51l.45,87.91c-7.34,3.21-14.46,2.7-21.98.33Z"/>
  <path class="st0" d="M2080.84,2813.83l-.45-43.04c-.08-8.12-7.15-12.36-15-12.41l-40.7-.23v116.19c3.57,3.8,11.35,2.86,16.71,1.09l.7-45.19c.04-2.26,7.95-2.53,8.94.11l16.88,45.21c6.1,1.82,13.69,2.92,18.16-1.5l-17.64-45.83c9.15-1.44,12.47-6.83,12.39-14.41ZM2041.63,2815.36l-.19-43.14c7.35-.82,14.05-1.01,21.45.75l.64,41.03c-7.13,2.45-14.08,1.41-21.9,1.37Z"/>
  <path class="st0" d="M1097.35,2817.68l.46-47.54c-.89-6.91-5.63-11.41-12.56-11.49l-43.64-.54.07,117.68c6.02,1.58,11.55,1.45,17.03-.84l.58-45.04c1.12-2.15,8.32-1.79,9.26.71l17.08,45.29c6.4,1.29,12.16,1.72,17.92-.39l-18.14-47.4c6.52-.95,11.88-4.31,11.94-10.43ZM1058.52,2814.93l-.16-42.81c7.35-.68,14.66-.88,22.32.82l.02,41.83-22.18.16Z"/>
  <path class="st0" d="M1797.21,2813.98l-.09-41.75c-.02-9.06-7.11-13.8-15.63-13.75l-40.76.25-.04,117.36c6.25,1.45,11.22.91,17.04-.52l1.05-45.18c.06-2.62,8.1-2.39,9.31.89l16.62,45.15c6.55.32,11.19,1.62,18.28-1.4l-18.18-46.63c8.61-1.65,12.42-6.85,12.4-14.43ZM1758.22,2814.92l-.09-42.79,21.57.49.56,41.61c-7.27,2.19-14.26,1.68-22.03.69Z"/>
  <path class="st0" d="M873.28,2758.54l-29.39-.18c-8.79-.05-13.91,7.07-13.92,15.69l-.11,85.97c0,7.28,4.31,16.03,11.87,15.95l34.61-.37c5.43-1.87,9.34-6.34,9.35-11.76l.22-91.8c.02-7.86-4.95-13.45-12.63-13.5ZM847.05,2861.66l.1-87.6c7.09-3.48,14.31-2.87,21.96-.62l.54,87.85c-7.3,3.01-14.3,2.67-22.59.37Z"/>
  <path class="st0" d="M1327.37,2758.33l-27.59.15c-8.73.05-14.06,6.92-14.07,15.56l-.08,85.99c0,7.41,4.32,15.84,11.99,15.86l33.68.05c7.76-3.15,10.73-9.75,10.75-17.91l.14-82.03c.02-9.61-4.68-17.71-14.83-17.66ZM1303.15,2861.65l.33-87.78c6.6-3.1,13.89-2.6,21.3-.5l.34,87.94c-6.92,2.76-13.92,2.59-21.97.34Z"/>
  <path class="st0" d="M1964.94,2759.12l-20.64,116.66c6.65,1.92,11.87,1.94,17.08.26l4.33-26.35c8.65-.54,16.87-1.3,25.59.39,1.34,10.15.92,17.35,4.01,24.72,3.13,3.16,13.01,2.77,16.85-.1l-22.02-116.43-25.2.84ZM1967.38,2835.52l10.08-59.23,10.88,58.93c-8.29,1.5-13.47.78-20.96.31Z"/>
  <path class="st0" d="M1494.07,2809.23l-22.63-1.05c.8-11.35-2.44-22.96.99-33.75,1.32-4.16,14.46-4.08,16.4-.12,2.57,5.24,1.26,11.66,1.1,17.54,6,1.44,11.28,1.38,17.5.16l.16-18.15c.07-7.84-4.46-15.15-12.48-15.13l-29.13.07c-6.99.02-11.94,6.4-11.9,13.37l.18,37.31c.04,8.35,6.8,12.92,14.78,13.38l20.99,1.19-.57,36.45c-1.64,4.13-13.21,3.44-17.4.9l-.64-19.05c-5.96-.55-11.17-.71-16.86.55l.11,20.51c.09,15.94,20.12,13.29,38.98,12.79,8-.22,14.04-5.96,14.02-14.15l-.12-39.94c-.02-7.77-6.16-12.52-13.47-12.86Z"/>
  <path class="st0" d="M1129.21,2758.89l-20.37,116.85c6.37,1.7,11.12,1.18,16.73-.23l4.29-25.88c8.68-1.1,16.99-1.13,25.7.42l3.96,26.12c5.43,1.31,10.46,1.34,16.94-.69l-21.98-117.43-25.26.83ZM1131.76,2835.74l10.15-59.77,10.74,59.18-20.89.59Z"/>
  <path class="st0" d="M2113,2758.33l-20.78,117.52c6.66,1.69,11.45,1.29,17.14-.14l4.99-26.41c8.99-.04,16.86-1.16,24.57.85l3.77,26.16c6.38.52,10.97.97,17.42-.56l-22.12-117.56-24.98.15ZM2115.55,2835.77l10.2-59.72,10.34,59.13-20.54.6Z"/>
  <path class="st0" d="M1394.3,2773.46l1.04,18.43c5.85,1.33,10.56,1.33,16.42-.1,2.39-18.07-.1-33.55-14.23-33.33l-27.24.42c-6.52.1-11.41,5.63-11.44,12.38l-.15,37.89c-.03,8.69,7.48,13.59,15.62,13.91l20.08.79-.22,36.91c-3.72,3.67-13.14,3.28-17.43.19l-.91-18.48c-6.43-.65-11.53-.79-17.13.44l.48,21.23c.13,5.86,4.66,10.53,10.84,11.45,21.53,3.2,42.44,2.37,42.44-14.34v-38.03c-.01-8.36-6.33-13.57-14.4-13.93l-22.27-.97.13-34.25c5.49-3.09,12.39-3.11,18.38-.62Z"/>
  <path class="st0" d="M2445.33,2762.13c-7.21-6.35-47.91-8.4-48.06,7.94l-.35,39.93c-.06,7.07,5.52,11.87,12.22,12.35l23.89,1.7c-.5,12.46,1.99,25.09-1.36,36.88-1.53,4.17-16.31,3.7-16.54-.57l-.93-17.37c-5.34-1.34-10.84-1.22-16.95-.5l.18,21.53c.07,8.53,9.54,13.08,17.69,12.74l23.08-.98c7.81-.33,12.27-7.37,12.24-14.14l-.16-38.81c-.03-8.43-6.54-13.14-14.99-13.42l-21.11-.71.29-35.27c4.41-1.99,13.71-3.4,16.86.32,3.64,4.29,1.29,12.61,1.68,17.99,6.7,1.76,11.64,1.35,17.27-.05-.16-9.77,2.67-22.8-4.95-29.52Z"/>
  <path class="st0" d="M1923.29,2758.71l-43.06-.42.08,118.16,17.15-.69.59-44.69,28.3-1.1c5.86-.23,9.78-6.17,9.81-11.16l.27-47.94c.04-7.27-5.98-12.09-13.14-12.16ZM1897.51,2817.77l.07-45.55c7.29-.58,13.87-.82,21.47.69l.31,43.87-21.85.99Z"/>
  <path class="st0" d="M1713.09,2758.81l-43.57-.48-.05,117.55c6.25,1.53,11.72,1.09,17.29-.06l.15-44.3,24.31-.6c9.17-.23,14.59-6.49,14.61-14.93l.1-42.09c.31-7.93-4.78-15.01-12.86-15.1ZM1686.42,2817.03l.16-44.05c6.91-2.03,14.41-1.54,21.96.18l.28,42.09c-6.96,3.38-14.66,2.53-22.4,1.78Z"/>
  <path class="st0" d="M947.31,2758.76l-42.31-.77.25,117.91c5.06,2.41,13.47,2.1,16.7-1.61l.67-43.23,24.35-.42c8.8-.15,14.56-6.75,14.57-14.58l.04-43.94c-.38-8.18-6.27-13.23-14.25-13.37ZM921.9,2817.57l-.06-45.53,21.84.55.53,43.21c-7.41,2.85-14.51,2.14-22.3,1.78Z"/>
  <path class="st0" d="M993.65,2862.55l.33-40.47,27.42-.46.09-12.96-27.71-.43.1-36.36,32.89-.31.3-13.15-50.7-.14.16,118.48,50.93-.56c1.47-5.18,1.31-9.36.23-13.37l-34.04-.28Z"/>
  <path class="st0" d="M1833.34,2862.48v-40.42s26.77-.65,26.77-.65c.99-4.95,1.11-9.29-.52-12.91l-26.24-.31.06-36.14,31.8-.39c1.52-4.67,1.94-9.21.33-13.5l-49.69.16.29,118.36,51.03-.46c.84-5.17.66-9.29.14-13.45l-33.96-.28Z"/>
  <path class="st0" d="M1526.16,2759.16l-.46,116.57c6.08,1.55,11.86,1.69,17.91-.52l-.05-116.79c-6.2-.76-11.27-.69-17.4.74Z"/>
  <path class="st0" d="M1099.58,2204.04l-5.98-20.48c-.46-1.56-4.57-.96-5.14.35l-2.15,4.96-39.95,131.46-24.16,77.62,138.62-.07-19.45-64.67-41.8-129.15Z"/>
  <path class="st0" d="M1578.16,1427.12c-38.84-16.17-79.79-26.42-121.75-27.8-5.86,12.82-9.03,24.7-16.93,34.91-11.64,15.04-68.66,12.79-98.95,12.65-3.5,26.17,1.42,51.82,12.47,75.75,23.9,51.75,84.45,75.33,141.47,62.54,23.1-5.18,44.96-13.46,60.96-31.24,28.07-31.18,39.91-73.02,32.62-113.91-1.08-6.04-4.27-10.57-9.87-12.9Z"/>
  <path class="st0" d="M1799.91,1396.35c-7.31,27.12-17.72,61-41.67,72.32-17.37,3.54-33.77.65-51.08-2.33-20.34-3.5-11.6,76.42,40.52,107.29,30.75,18.21,69.16,19.83,103.99,12.06,29.8-6.65,52.28-23.56,67.45-48,16.3-26.27,30.4-76.53,21.6-103.2-12.46-37.79-98.48-41.32-140.81-38.13Z"/>
  <path class="st4" d="M2189.47,2772.21l.35,42.65c7.72.74,14.51,1.5,21.71-1.04l-.69-40.82c-7.45-1.64-14.08-1.46-21.37-.79Z"/>
  <path class="st4" d="M2341.3,2773.88v87.73c7.51,2.37,14.63,2.87,21.97-.33l-.45-87.91c-7.78-2.2-15.03-2.68-21.52.51Z"/>
  <path class="st4" d="M2041.44,2772.22l.19,43.14c7.82.04,14.77,1.09,21.9-1.37l-.64-41.03c-7.41-1.76-14.1-1.57-21.45-.75Z"/>
  <path class="st4" d="M1058.37,2772.12l.16,42.81,22.18-.16-.02-41.83c-7.66-1.71-14.97-1.5-22.32-.82Z"/>
  <path class="st4" d="M1758.12,2772.13l.09,42.79c7.77.99,14.76,1.49,22.03-.69l-.56-41.61-21.57-.49Z"/>
  <path class="st4" d="M847.14,2774.06l-.1,87.6c8.29,2.3,15.29,2.64,22.59-.37l-.54-87.85c-7.65-2.26-14.87-2.87-21.96.62Z"/>
  <path class="st4" d="M1303.48,2773.87l-.33,87.78c8.05,2.24,15.04,2.42,21.97-.34l-.34-87.94c-7.4-2.1-14.7-2.6-21.3.5Z"/>
  <path class="st4" d="M1967.38,2835.52c7.49.47,12.68,1.19,20.96-.31l-10.88-58.93-10.08,59.23Z"/>
  <polygon class="st4" points="1131.76 2835.74 1152.65 2835.14 1141.91 2775.97 1131.76 2835.74"/>
  <polygon class="st4" points="2115.55 2835.77 2136.09 2835.17 2125.75 2776.05 2115.55 2835.77"/>
  <path class="st4" d="M1897.58,2772.23l-.07,45.55,21.85-.99-.31-43.87c-7.6-1.51-14.18-1.27-21.47-.69Z"/>
  <path class="st4" d="M1686.58,2772.98l-.16,44.05c7.74.75,15.44,1.6,22.4-1.78l-.28-42.09c-7.55-1.72-15.06-2.21-21.96-.18Z"/>
  <path class="st4" d="M921.84,2772.04l.06,45.53c7.8.36,14.89,1.07,22.3-1.78l-.53-43.21-21.84-.55Z"/>
  <g>
    <path class="st2" d="M1846.35,2495.17l-39.39-.32-.41,127.42,114.54,1.14v-112.3c-.06-6.08-.88-11.22-4.07-14.75l-70.67-1.2Z"/>
    <path class="st2" d="M1479.59,2498.02l-49.86.7.14,124.99,108.61-.55.25-124.28-21.03-1.16c-12.87-.71-25.32-2.18-38.12.3Z"/>
    <path class="st2" d="M1966.99,1426.5c-4.08-19.62-17.73-33.25-36.6-39.59-31.38-10.53-64.14-13.96-97.42-11.67l-110.92,7.64-26.99,4.92c-7.42,1.35-14.27,4.85-19.03,10.63-19.48,23.7-120.15-3.38-157.75-10.94l-98.38-19.78c-14.93-3-29.16-4.37-44.5-3.87-28.63,6.48-52.04,26.43-61.91,54.6-1.84,44.68,8.32,88.46,30.5,126.9,21.88,37.94,64.65,59.97,108.09,63.96,57.35,5.26,111.98-13.95,138.25-66.6,10.45-20.93,18.99-41.58,25.66-64.37,2.26-7.73,3.74-18.59,9.64-24.28,5.33-5.14,17.34-1.24,23.81-.57,10.32,1.05,16.36,7.32,17.89,16.95,3.53,22.2,8.74,42.69,18.83,63.08,17.57,35.51,48.83,63.72,88.85,73.23,81.53,19.38,155.1-19.37,178.47-98.63,7.93-26.88,10.92-53.68,13.5-81.61Z"/>
    <polygon class="st2" points="1573.91 2254.16 1573.41 2622.19 1751.44 2623.51 1751.35 2053.6 1575.04 2053.96 1573.91 2254.16"/>
    <path class="st2" d="M659.73,1406.05l21.92,173.9,14.97,120.99,22.34,165.55,17.83,108.63c19.35-10.23,37.37-15.05,56.41-21.71l137.66-48.16,72.69-23.48,53.22-19.75h0s261.31,128.67,261.31,128.67l.31.06c6.7,1.26,11.13-6.76,6.5-11.76h0s-187.09-131.15-187.09-131.15l-71.85-46.06-112.29-64.84c53.4-40.93,106.19-82.67,163.6-118.84l77.61-48.9,78.62-45.24c-12.17-34.86-24.36-68.57-28.75-104.66l-4.79-39.34-76.04-30.23c-33.08-13.15-63.99-27.44-94.71-45.34-20.18-11.76-39.97-22.72-57.26-40.1,44.02-14.45,85.32-23.32,128.15-33.84l137.49-33.8c.73-.34,1.42-.7,2.09-1.06-2.19-.62-3.35-.97-3.35-.97l18.64-19.97,42.85-154.54,39.85-133.81,13.17-37.02c5.93-16.67,47.49-15.1,72.6-9.11,34.29,8.17,65.85,19.67,98.26,33.67,25.45,10.99,51.1,24.59,77.67,31.01,27.14-7.97,51.57-23.82,77.33-35.67,35.31-16.24,70.39-29.24,108.55-37.37,17.56-3.74,36.82-1.02,53.05,5.39,8.67,3.42,13.95,13.26,16.47,21.38l18.03,58.17,32.02,113.67,27.92,106.02,4.18,20.81c1.33,6.62,4.03,12.84,7.88,18.28,2.61-.59,3.99-.91,3.99-.91l18.67,20s0,0-.01,0c0,0,0,0,.01,0h0s260.67,67.53,260.67,67.53c0,0-.44.47-1.38,1.38,1.18.96,1.54,2.26.88,3.26-5.16,7.72-80.59,51.49-104.27,61.23l-9.63,3.96c-26.32,12.28-58.12,25.64-96.35,39.63l-19.1,7.86c-7.77,48.96-21.08,96.03-36.01,145.62l169.3,98.54,106.41,73.56,48.68,35.47c8.21,5.98-2.44,4.39-10.89,9.91l-105.1,68.63-44.7,30.85-8.98,5.76-187.09,131.15h0c-4.63,5.01-.2,13.02,6.5,11.76l.31-.06,259.03-127.54c12.84,7.33,26.75,12.14,41.01,17.42l80.69,25.59,196.45,64.02,30.25-221.35,31.49-260.34,22.09-222.46c4.45-44.82,9.81-86.76,8.27-132.83l-91.79-56.1-52.92-27.23-83.09-42.91-82.75-40.99-116.95-54.73-109.57-50.46-103.43-44.8-165.28-68.61-70.75-27.53c-44.55-17.33-87.54-35.1-133.58-48.07-44.53,13-84.9,29.76-127.3,47.2l-160.02,65.84-68.71,27.55-113.32,50.75-89.35,40.6-86.29,41.41-122.55,59.35-96.85,51.04c-33.85,17.84-65.57,35.78-98.06,56.11l-39.37,24.63c.66,38.05,5.14,74.15,9.1,111.84l16.58,157.97Z"/>
    <polygon class="st2" points="2634.97 2621.78 2634.25 2506.15 2525.36 2505.11 2525.82 2623.45 2634.97 2621.78"/>
    <path class="st2" d="M2282.97,2495.12c-39.26,9.29-110.69,15.41-129.41-17.22-5.97-10.41-5.95-22.23-7.34-35.7l-176.35-.12.08,55.95c.02,12.45,3.31,25.72,8.37,37.15,15.34,34.65,44.58,59.22,79.82,72.04,45.13,16.42,90.28,23.09,137.95,25.93l60.37-.03,38.94-1.9c27.47-1.34,52.74-5.79,77.65-15.32l37.74-14.43c25.82-12.28,48.15-30.67,61-56.82,28.79-58.62,29.18-151.11-20.64-196.37-13.32-12.1-27.84-22.21-44.07-29.84-27.18-12.78-54.38-22.82-83.4-30.72l-86.39-23.52c-34.95-9.51-94.02-26.45-85.75-63.9,2.91-13.16,14.94-21.43,27.87-24.41,34.16-7.88,69.27-6.94,103.06,3.01,15.32,4.51,19.99,23.18,21.14,41.39l174.39-.3c4.39-87.18-29.92-134.39-111.94-160.67-28.95-9.27-57.74-11.95-87.93-14.41l-108.23-.25c-32.25,2.8-62.06,6.88-92.89,17.1-39.6,13.12-74.12,38.4-94.03,75.66-13.33,24.94-14.59,52.88-14.97,80.64-.61,45.39,19.47,84.74,54.56,112.97,13,10.46,27.27,17.81,42.95,25.15,73.71,34.47,142.45,39.43,205.78,65.79,12.67,5.27,25.54,11.65,31.58,24.43,9.29,19.66-2.79,44.72-19.88,48.77Z"/>
    <path class="st2" d="M2142.34,3045.13l-98.9,52.84-20.94,11.19-68.86,39.03-86.26,49.73-80.24,45.9-70.2,37.95-74.35,42.27-109.01-60.04-98.73-57.31-120.46-69.34-54.79-31.58-115.49-59.71c-7.87-4.07-18.06-3.48-23.47,4.12l70.47,46.27,38.86,23.22,67.96,40.04,84.86,49.17,68.14,40.02,154.47,86.94,38.32,19.26,99.78-55.45,230.63-132.59,49.35-27.16,108.47-65.21,30.73-19.35c2.68-1.69,3.27-5.57,2.51-7.98-1.04-3.34-13.32-7.34-22.87-2.23Z"/>
    <path class="st2" d="M1324.94,2350.78l-35.39-104.97-44.35-123.43-24.39-68.6-254.98.12-17.24,46.93-29.61,84.72-117.11,338.43-32.82,99.63,181.31-.46c7.23-12.64,11.37-25.37,15.51-38.94l19.56-64.01,213.08-.13,12.77,43.13,15.16,46.27c1.29,3.95,3.97,13.53,9.83,14.03l176.97.49c1.62-6.36-1.76-10.77-3.35-16.21l-9.13-31.26-75.83-225.74Z"/>
    <path class="st2" d="M2306.91,2688.38l-999.16-.18-491.44-.81-185.12.55,36.08,138.57,11.51,32.05,88.67,43.8,82.84,39.1,34,16.09,58.1,30.36,201.61.09,1192.67-.02c14.08,0,22.32-2.79,33.75-8.87l59.24-31.52,39.87-19.24,60.5-31.42,78.31-39.75c5.07-2.57,8.58-6.29,10.13-12.05l31.01-114.64,11.63-43.71-138.76.49-215.45,1.12Z"/>
    <path class="st2" d="M2711.99,1239.26l5.79-53.96-25.02-7.87-5.69,64.65-19.63,180.03-23.82,205.76-11.92,96.18-13.81,106.08-13.26,90.78-15.53,108.85-12.73,92.41c9.66,2.52,16.24,3.53,22.87,2.6l21.83-144.92,28.45-201.65,19.95-153.98,22.37-205.7,20.14-179.24Z"/>
    <path class="st2" d="M1751.45,3098.38l-80.51-1.14-27.37-68.24-24.44,62.42c-1.35,4.86-4.94,6.4-9.67,6.49l-69.97,1.23,58.95,51.23-23.7,80c9.31-1.77,13.05-9.14,19.49-13.55l47.73-32.73c5.54-3.8,12.08,4.85,15.87,7.32l52.34,34.18-18.41-65.9c-2.22-1.99-6-8.5-3.78-10.28l63.48-51Z"/>
    <path class="st0" d="M2689.37,2173.5l26.56-143.2,27.44-190.37,45.24-361.81,21.66-227.45,7.31-94.73,6.87-93.96-36.08-15.16-50.45-21.98-215-90.61-106.45-43.52-75.48-32.33-71.34-28.75-76.64-31.73-223.9-91.39-46.64-19.58-107.18-42.75-60.99-23.29-106.53-43.09c-7.47-3.02-14.38-2.58-21.99.5l-190.69,77.12-85.88,34.47-179.7,74.04-104.59,43.59-125.1,50.94-126.64,53.06-114.27,47.49-131.99,55.85c-37.16,15.72-72.87,30.93-109.16,49.8-.33,34.1,4.98,67.34,7.11,101.55l3.11,49.83,6.66,73.6,15.94,169.12,8.56,73.63,21.18,154.66,43.28,303.04,31.06,184.15-41.74,14.94-103.92,38.75,33.59,119.29,32.38,113.8,69.63,251.87,50.99,176.41,88.88,49.82,54.35,33.99,88.86,52.93,53.35,30.67,40.28,23.84,95.16,54.64,76.16,43.91,60.71,35.42,97.55,56.21,84.51,49.54,24.77,13.33,84.51,49.51,128.73,74.79,26.86,15.4,27.68-14.94,98.13-55.87,225.87-131.35,78.12-44.42,89.84-52.06,38.94-21.35,120.23-69.4,57.62-34.7,144.32-85.26,115.67-68.46c6.29-3.72,14.95-6.61,19.26-12.93l26.55-92.97,27.2-99.14,28.23-101.88,23.93-83.81,19.13-69.07,26.74-101.36,27.31-107.06-145.67-53.75ZM673.42,1111.62c32.49-20.33,64.22-38.27,98.06-56.11l96.85-51.04,122.55-59.35,86.29-41.41,89.35-40.6,113.32-50.75,68.71-27.55,160.02-65.84c42.39-17.44,82.77-34.2,127.3-47.2,46.03,12.97,89.03,30.73,133.58,48.07l70.75,27.53,165.28,68.61,103.43,44.8,109.57,50.46,116.95,54.73,82.75,40.99,83.09,42.91,52.92,27.23,91.79,56.1c1.54,46.07-3.82,88.01-8.27,132.83l-22.09,222.46-31.49,260.34-26.28,226.31-200.42-68.98-80.69-25.59c-14.27-5.28-28.17-10.09-41.01-17.42l-259.03,127.54-.31.06c-6.7,1.26-11.13-6.76-6.5-11.76h0s187.09-131.15,187.09-131.15l8.98-5.76,44.7-30.85,105.1-68.63c8.46-5.52,19.1-3.93,10.89-9.91l-48.68-35.47-106.41-73.56-169.3-98.54c14.94-49.6,28.25-96.66,36.01-145.62l19.1-7.86c38.23-13.99,70.03-27.35,96.35-39.63l9.63-3.96c23.67-9.74,99.11-53.5,104.27-61.23.67-1,.3-2.31-.88-3.26.94-.91,1.38-1.38,1.38-1.38l-260.67-67.54h0s0,0-.01,0c-.99.29-176.83,52.56-319.54,41.33,0,0-2.67.22-3.11-2.89s3.11-4.22,3.11-4.22c136.91-17.95,272.23-47.77,296.89-53.32-3.85-5.44-6.55-11.66-7.88-18.28l-4.18-20.81-27.92-106.02-32.02-113.67-18.03-58.17c-2.52-8.12-7.8-17.96-16.47-21.38-16.23-6.4-35.48-9.13-53.05-5.39-38.16,8.13-73.24,21.13-108.55,37.37-25.77,11.85-50.19,27.7-77.33,35.67-26.57-6.42-52.22-20.02-77.67-31.01-32.41-13.99-63.97-25.5-98.26-33.67-25.11-5.98-66.66-7.56-72.6,9.11l-13.17,37.02-39.85,133.81-42.85,154.54.03-.03s149.48,34.37,300.89,54.22c0,0,3.56,1.11,3.11,4.22s-3.11,2.89-3.11,2.89c-131.55,10.35-291.27-33.25-316.21-40.36-.67.37-1.36.72-2.09,1.06l-137.49,33.8c-42.83,10.53-84.13,19.4-128.15,33.84,17.29,17.38,37.08,28.34,57.26,40.1,30.72,17.9,61.63,32.19,94.71,45.34l76.04,30.23,4.79,39.34c4.4,36.09,16.59,69.8,28.75,104.66l-78.62,45.24-77.61,48.9c-57.41,36.17-110.2,77.91-163.6,118.84l112.29,64.84,71.85,46.06,187.09,131.15h0c4.63,5.01.2,13.02-6.5,11.76l-.31-.06-261.31-128.67h0s-53.22,19.75-53.22,19.75l-72.69,23.48-137.66,48.16c-19.04,6.66-37.05,11.48-56.41,21.71l-17.83-108.63-22.34-165.55-14.97-120.99-21.92-173.9-16.58-157.97c-3.96-37.69-8.44-73.8-9.1-111.84l39.37-24.63ZM2302.85,2446.35c-6.04-12.77-18.91-19.15-31.58-24.43-63.33-26.36-132.07-31.32-205.78-65.79-15.68-7.33-29.94-14.68-42.95-25.15-35.09-28.23-55.17-67.58-54.56-112.97.37-27.76,1.63-55.69,14.97-80.64,19.91-37.26,54.44-62.53,94.03-75.66,30.82-10.22,60.64-14.3,92.89-17.1l108.23.25c30.19,2.46,58.98,5.14,87.93,14.41,82.02,26.27,116.34,73.49,111.94,160.67l-174.39.3c-1.15-18.21-5.82-36.88-21.14-41.39-33.79-9.94-68.89-10.89-103.06-3.01-12.93,2.98-24.96,11.24-27.87,24.41-8.27,37.45,50.8,54.39,85.75,63.9l86.39,23.52c29.02,7.9,56.22,17.94,83.4,30.72,16.23,7.63,30.75,17.75,44.07,29.84,49.83,45.26,49.43,137.75,20.64,196.37-12.84,26.15-35.18,44.55-61,56.82l-37.74,14.43c-24.92,9.53-50.18,13.98-77.65,15.32l-38.94,1.9-60.37.03c-47.67-2.84-92.81-9.51-137.95-25.93-35.24-12.82-64.48-37.39-79.82-72.04-5.06-11.43-8.35-24.7-8.37-37.15l-.08-55.95,176.35.12c1.39,13.48,1.37,25.29,7.34,35.7,18.71,32.63,90.15,26.51,129.41,17.22,17.1-4.05,29.18-29.11,19.88-48.77ZM1775.01,1606.74c-40.02-9.51-71.28-37.72-88.85-73.23-10.09-20.39-15.29-40.89-18.83-63.08-1.53-9.63-7.57-15.9-17.89-16.95-6.47-.66-18.48-4.56-23.81.57-5.9,5.69-7.38,16.55-9.64,24.28-6.67,22.79-15.22,43.44-25.66,64.37-26.27,52.65-80.9,71.86-138.25,66.6-43.44-3.99-86.21-26.01-108.09-63.96-22.18-38.45-32.34-82.22-30.5-126.9,9.87-28.17,33.29-48.12,61.91-54.6,15.34-.49,29.56.87,44.5,3.87l98.38,19.78c37.6,7.56,138.26,34.64,157.75,10.94,4.75-5.78,11.61-9.28,19.03-10.63l26.99-4.92,110.92-7.64c33.28-2.29,66.04,1.14,97.42,11.67,18.87,6.33,32.52,19.97,36.6,39.59-2.58,27.93-5.58,54.73-13.5,81.61-23.38,79.26-96.94,118.01-178.47,98.63ZM1751.44,2623.51l-178.03-1.32.51-368.03,1.13-200.2,176.31-.36.09,569.91ZM1413.25,2623.99l-176.97-.49c-5.87-.51-8.54-10.09-9.83-14.03l-15.16-46.27-12.77-43.13-213.08.13-19.56,64.01c-4.15,13.57-8.29,26.3-15.51,38.94l-181.31.46,32.82-99.63,117.11-338.43,29.61-84.72,17.24-46.93,254.98-.12,24.39,68.6,44.35,123.43,35.39,104.97,75.83,225.74,9.13,31.26c1.59,5.44,4.97,9.85,3.35,16.21ZM2649.49,2730.48l-31.01,114.64c-1.56,5.76-5.07,9.48-10.13,12.05l-78.31,39.75-60.5,31.42-39.87,19.24-59.24,31.52c-11.44,6.09-19.67,8.87-33.75,8.87l-1192.67.02-201.61-.09-58.1-30.36-34-16.09-82.84-39.1-88.67-43.8-11.51-32.05-36.08-138.57,185.12-.55,491.44.81,999.16.18,215.45-1.12,138.76-.49-11.63,43.71ZM2669.48,1624.2l-19.95,153.98-28.45,201.65-21.83,144.92c-6.64.93-13.21-.08-22.87-2.6l12.73-92.41,15.53-108.85,13.26-90.78,13.81-106.08,11.92-96.18,23.82-205.76,19.63-180.03,5.69-64.65,25.02,7.87-5.79,53.96-20.14,179.24-22.37,205.7Z"/>
  </g>
  <g>
    <path class="st1" d="M1984.79,1175.53c-24.67,5.55-159.99,35.37-296.89,53.32,0,0-3.56,1.11-3.11,4.22s3.11,2.89,3.11,2.89c142.71,11.23,318.56-41.04,319.54-41.33,0,0,.01,0,.01,0l-18.67-20s-1.38.32-3.99.91Z"/>
    <path class="st1" d="M1279.66,1195.59c24.94,7.11,184.65,50.71,316.21,40.36,0,0,2.67.22,3.11-2.89s-3.11-4.22-3.11-4.22c-151.41-19.85-300.89-54.22-300.89-54.22l-.03.03-18.64,19.97s1.16.34,3.35.97Z"/>
    <path class="st1" d="M736.79,1975.13c19.35-10.23,37.37-15.05,56.41-21.71l137.66-48.16,72.69-23.48,53.22-19.75h0s261.31,128.67,261.31,128.67l.31.06c6.7,1.26,11.13-6.76,6.5-11.76h0s-187.09-131.15-187.09-131.15l-71.85-46.06-112.29-64.84c53.4-40.93,106.19-82.67,163.6-118.84l77.61-48.9,78.62-45.24c-12.17-34.86-24.36-68.57-28.75-104.66l-4.79-39.34-76.04-30.23c-33.08-13.15-63.99-27.44-94.71-45.34-20.18-11.76-39.97-22.72-57.26-40.1,44.02-14.45,85.32-23.32,128.15-33.84l137.49-33.8c.73-.34,1.42-.7,2.09-1.06-2.19-.62-3.35-.97-3.35-.97l18.64-19.97,42.85-154.54,39.85-133.81,13.17-37.02c5.93-16.67,47.49-15.1,72.6-9.11,34.29,8.17,65.85,19.67,98.26,33.67,25.45,10.99,51.1,24.59,77.67,31.01,27.14-7.97,51.57-23.82,77.33-35.67,35.31-16.24,70.39-29.24,108.55-37.37,17.56-3.74,36.82-1.02,53.05,5.39,8.67,3.42,13.95,13.26,16.47,21.38l18.03,58.17,32.02,113.67,27.92,106.02,4.18,20.81c1.33,6.62,4.03,12.84,7.88,18.28,2.61-.59,3.99-.91,3.99-.91l18.67,20,260.67,67.54s-.44.47-1.38,1.38c1.18.96,1.54,2.26.88,3.26-5.16,7.72-80.59,51.49-104.27,61.23l-9.63,3.96c-26.32,12.28-58.12,25.64-96.35,39.63l-19.1,7.86c-7.77,48.96-21.08,96.03-36.01,145.62l169.3,98.54,106.41,73.56,48.68,35.47c8.21,5.98-2.44,4.39-10.89,9.91l-105.1,68.63-44.7,30.85-8.98,5.76-187.09,131.15h0c-4.63,5.01-.2,13.02,6.5,11.76l.31-.06,259.03-127.54c12.84,7.33,26.75,12.14,41.01,17.42l80.69,25.59,196.45,64.02,30.25-221.35,31.49-260.34,22.09-222.46c4.45-44.82,9.81-86.76,8.27-132.83l-91.79-56.1-52.92-27.23-83.09-42.91-82.75-40.99-116.95-54.73-109.57-50.46-103.43-44.8-165.28-68.61-70.75-27.53c-44.55-17.33-87.54-35.1-133.58-48.07-44.53,13-84.9,29.76-127.3,47.2l-160.02,65.84-68.71,27.55-113.32,50.75-89.35,40.6-86.29,41.41-122.55,59.35-96.85,51.04c-33.85,17.84-65.57,35.78-98.06,56.11l-39.37,24.63c.66,38.05,5.14,74.15,9.1,111.84l16.58,157.97,21.92,173.9,14.97,120.99,22.34,165.55,17.83,108.63Z"/>
  </g>
  <polygon class="st4" points="1645.47 3025.54 1671.32 3105.09 1754.96 3105.09 1687.29 3154.26 1713.14 3233.81 1645.47 3184.65 1577.8 3233.81 1603.64 3154.26 1535.97 3105.09 1619.62 3105.09 1645.47 3025.54"/>
  <polyline class="st3" points="1124.44 3051.36 1647.53 3356.27 2166.49 3056.51"/>
  <rect class="st4" x="1429.73" y="2498.72" width="108.75" height="124.44"/>
  <rect class="st4" x="1808.3" y="2498.72" width="108.75" height="124.44"/>
  <rect class="st4" x="2525.79" y="2498.72" width="108.75" height="124.44"/>
  <path class="st4" d="M1399.43,2572.52h0s-74.49-221.74-74.49-221.74l-35.39-104.97-44.35-123.43-24.39-68.6-254.98.12-17.24,46.93-29.61,84.72-117.11,338.43-32.82,99.63,177.32-.45h8.74l14.93-52.56,15.4-50.4,213.08-.13.21.71-.21-.35,29.28,103.1h16.38l163.92.45h0s8.68.01,8.68.01l-17.35-51.46ZM1022.2,2397.94l24.16-77.62,39.95-131.46,2.15-4.96c.57-1.31,4.68-1.91,5.14-.35l5.98,20.48,41.8,129.15,19.45,64.67-138.62.07Z"/>
  <path class="st4" d="M582.47,1237.92l-5.79-53.96,25.02-7.87,5.69,64.65,19.63,180.03,23.82,205.76,11.92,96.18,13.81,106.08,13.26,90.78,15.53,108.85,12.73,92.41c-9.66,2.52-16.24,3.53-22.87,2.6l-21.83-144.92-28.45-201.65-19.95-153.98-22.37-205.7-20.14-179.24Z"/>
</svg>